<?xml version="1.0" encoding="UTF-8" standalone="no"?>
<!DOCTYPE svg PUBLIC "-//W3C//DTD SVG 1.1//EN" "http://www.w3.org/Graphics/SVG/1.1/DTD/svg11.dtd">
<svg stroke="currentColor" fill="currentColor" stroke-width="0" viewBox="0 0 512 512" height="1em" width="1em" version="1.1" xmlns="http://www.w3.org/2000/svg" xmlns:xlink="http://www.w3.org/1999/xlink" style="animation-direction:alternate-reverse;animation-duration:4s;animation-iteration-count:infinite;animation-name:floaty;animation-timing-function:ease-in-out;block-size:655.99px;border-block-end-color:rgb(0, 0, 0);border-block-start-color:rgb(0, 0, 0);border-bottom-color:rgb(0, 0, 0);border-inline-end-color:rgb(0, 0, 0);border-inline-start-color:rgb(0, 0, 0);border-left-color:rgb(0, 0, 0);border-right-color:rgb(0, 0, 0);border-top-color:rgb(0, 0, 0);caret-color:rgb(0, 0, 0);color:rgb(0, 0, 0);column-rule-color:rgb(0, 0, 0);fill:rgb(0, 0, 0);font-size:656px;height:655.99px;inline-size:655.99px;line-height:0px;outline-color:rgb(0, 0, 0);perspective-origin:327.986px 327.986px;stroke:rgb(0, 0, 0);stroke-width:0px;text-decoration:none solid rgb(0, 0, 0);text-decoration-color:rgb(0, 0, 0);transform:matrix(1, 0, 0, 1, 0, -0.0956259);transform-origin:327.995px 327.995px;width:655.99px;-webkit-text-emphasis-color:rgb(0, 0, 0);-webkit-text-fill-color:rgb(0, 0, 0);-webkit-text-stroke-color:rgb(0, 0, 0);"><path d="M231.64 60.34c-12.222 25.912-25.13 60.62-35.005 94.2-9.876 33.577-16.674 66.33-17.137 87.16-.366 5.434-.428 16.186 3.441 19.769.354.044 2.042-.023 5.036-1.52C206.12 250.876 231 247 256 247c25 0 49.879 3.876 68.025 12.95 2.994 1.496 4.682 1.563 5.036 1.519 3.16-4.29 3.503-15.532 3.441-19.77-.463-20.83-7.26-53.582-17.137-87.16-9.876-33.578-22.783-68.287-35.006-94.2-3.156-7.181-14.372-37.082-24.359-36.929-11.033.17-20.534 28.866-24.36 36.93zm-19.35-1.01c-22.495 17.595-50.172 42.38-59.099 65.879 3.844 14.31 13.763 23.683 23.69 32.91 10.069-33.526 22.243-69.391 35.408-98.789zm87.458.084c14.486 34.704 26.414 66.864 35.371 98.705 8.94-9.37 22.031-19.506 23.69-32.91-14.587-30.414-35.718-47.832-59.061-65.795zM59.141 132.908c-1.58 16.937 1.915 40.013 22.1 65.059 7.353-2.053 13.734-5.085 18.849-8.805 4.686 7.938 11.747 16.622 13.142 26.002 2.483 20.992-16.236 50.36-32.93 78.406-8.346 14.023-16 27.735-18.952 41.672-2.952 13.937.299 29.29 12.925 39.701 10.218 8.425 23.768 7.778 35.793 3.82 12.025-3.956 23.95-11.202 34.889-19.029 7.06-5.05 13.69-10.38 19.453-15.293 2.153.612 4.427 1.26 6.518 1.852-16.292 19.786-28.73 40.123-41.442 56.566-15.118 19.557-29.787 33.155-51.869 37.018-14.315 2.504-38.035-6.199-59.617-17.904v20.634c20.471 10.629 42.631 18.514 62.719 15 27.966-4.891 46.849-22.837 63.008-43.74 15.094-19.525 28.567-42.016 46.302-62.271 1.846.498 3.654.98 5.422 1.445-1.64 8.025-3.884 18.264-6.758 29.475-6.4 24.973-16.2 54.243-26.617 68.955C152.87 464.473 134.68 480.039 115.7 494h29.633c12.473-10.292 23.685-21.183 31.436-32.129 13.547-19.132 22.75-49.092 29.36-74.887 2.87-11.197 5.128-21.447 6.808-29.619 4.463 1.019 8.713 1.911 12.763 2.655-1.643 24.417-5.836 78.135-12.521 106.425-1.844 7.804-4.818 17.395-8.285 27.555h19.058c2.725-8.389 5.086-16.396 6.744-23.414 7.277-30.79 11.324-83.063 12.938-108.104 4.323.371 8.553.564 12.777.551 1.95 43.763 2.743 87.742 5.139 130.967h18.027c-2.096-43.95-3.693-88.095-5.195-132.139 3.673-.452 7.44-1.024 11.38-1.738.38 5.529.842 11.73 1.497 18.799 1.818 19.612 4.637 42.788 9.638 59.08 5.076 16.534 13.858 36.316 23.649 55.998h20.203c-11.208-21.998-21.476-44.444-26.644-61.281-4.1-13.357-7.15-36.333-8.922-55.46a765.6 765.6 0 0 1-1.637-20.935 575.888 575.888 0 0 0 10.267-2.572c3.057 9.82 8.226 25.34 15.202 42.2 11.633 28.113 27.316 59.935 49.884 75.462 22.168 15.252 56.768 18.44 86.559 19.238 10.42.28 20.164.147 28.543-.132v-18.006c-8.18.281-17.8.42-28.06.144-28.52-.764-61.584-5.576-76.838-16.072-15.656-10.771-32.309-40.577-43.456-67.516-6.583-15.911-11.488-30.572-14.445-40.023 1.963-.545 4.33-1.225 6.36-1.793 4.641 9.226 11.72 22.387 20.34 35.209 7.687 11.437 16.456 22.577 26.468 30.44 10.012 7.861 23.045 12.843 35.332 7.3 6.99-3.153 12.479-8.084 15.666-14.094 3.187-6.01 4.078-12.672 3.756-19.267-.644-13.19-5.758-26.93-11.342-41.164-5.584-14.234-11.796-28.855-15.426-42.14-3.63-13.287-4.442-24.843-1.15-33.306 9.78-15.892 23.432-29.033 36.545-38.726 5.337 4.231 12.244 7.662 20.318 9.916 20.185-25.045 23.679-48.122 22.1-65.059-24.536 7.73-42.168 26.434-54.592 41.766-16.116 12.277-34.131 27.545-41.146 45.576-5.508 14.157-3.544 29.547.562 44.576 4.106 15.03 10.589 30.097 16.031 43.97 5.443 13.875 9.69 26.662 10.12 35.468.214 4.402-.43 7.604-1.678 9.957-6.948 10.457-17.25 6.263-23.979 1.07-7.397-5.808-15.532-15.74-22.646-26.324-14.228-21.168-24.639-44.565-24.639-44.565l-.273.122-8.707-17.413C333.0 319.258 323.253 325 312 325c-18.119 0-33-14.881-33-33 0-9.453 4.055-18.02 10.502-24.057C279.092 266.037 267.532 265 256 265c-9.084 0-18.178.652-26.72 1.857C236.43 272.928 241 281.965 241 292c0 18.119-14.881 33-33 33-14.421 0-26.782-9.43-31.23-22.414-8.236 18.35-29.464 33.224-42.288 42.51-10.107 7.231-20.993 13.59-30.04 16.568-9.049 2.977-14.835 2.594-18.717-.607-7.893-6.508-8.85-12.247-6.766-22.084 2.083-9.837 8.706-22.58 16.812-36.198 16.213-27.236 39.1-57.896 35.336-89.724-1.284-10.863-7.458-20.852-12.984-29.346-13.686-20.938-36.79-44.905-58.982-50.797zM208 277c-8.39 0-15 6.61-15 15s6.61 15 15 15 15-6.61 15-15-6.61-15-15-15zm104 0c-8.39 0-15 6.61-15 15s6.61 15 15 15 15-6.61 15-15-6.61-15-15-15z" style="block-size:auto;border-block-end-color:rgb(0, 0, 0);border-block-start-color:rgb(0, 0, 0);border-bottom-color:rgb(0, 0, 0);border-inline-end-color:rgb(0, 0, 0);border-inline-start-color:rgb(0, 0, 0);border-left-color:rgb(0, 0, 0);border-right-color:rgb(0, 0, 0);border-top-color:rgb(0, 0, 0);caret-color:rgb(0, 0, 0);color:rgb(0, 0, 0);column-rule-color:rgb(0, 0, 0);d:path(&quot;M 231.64 60.34 C 219.418 86.252 206.51 120.96 196.635 154.54 C 186.759 188.117 179.961 220.87 179.498 241.7 C 179.132 247.134 179.07 257.886 182.939 261.469 C 183.293 261.513 184.981 261.446 187.975 259.949 C 206.12 250.876 231 247 256 247 C 281 247 305.879 250.876 324.025 259.95 C 327.019 261.446 328.707 261.513 329.061 261.469 C 332.221 257.179 332.564 245.937 332.502 241.699 C 332.039 220.869 325.242 188.117 315.365 154.539 C 305.489 120.961 292.582 86.252 280.359 60.339 C 277.203 53.158 265.987 23.257 256 23.41 C 244.967 23.58 235.466 52.276 231.64 60.34 Z M 212.29 59.33 C 189.795 76.925 162.118 101.71 153.191 125.209 C 157.035 139.519 166.954 148.892 176.881 158.119 C 186.95 124.593 199.124 88.728 212.289 59.33 Z M 299.748 59.414 C 314.234 94.118 326.162 126.278 335.119 158.119 C 344.059 148.749 357.15 138.613 358.809 125.209 C 344.222 94.795 323.091 77.377 299.748 59.414 Z M 59.141 132.908 C 57.561 149.845 61.056 172.921 81.241 197.967 C 88.594 195.914 94.975 192.882 100.09 189.162 C 104.776 197.1 111.837 205.784 113.232 215.164 C 115.715 236.156 96.996 265.524 80.302 293.57 C 71.956 307.593 64.302 321.305 61.35 335.242 C 58.398 349.179 61.649 364.532 74.275 374.943 C 84.493 383.368 98.043 382.721 110.068 378.763 C 122.093 374.807 134.018 367.561 144.957 359.734 C 152.017 354.684 158.647 349.354 164.41 344.441 C 166.563 345.053 168.837 345.701 170.928 346.293 C 154.636 366.079 142.198 386.416 129.486 402.859 C 114.368 422.416 99.699 436.014 77.617 439.877 C 63.302 442.381 39.582 433.678 18 421.973 V 442.607 C 38.471 453.236 60.631 461.121 80.719 457.607 C 108.685 452.716 127.568 434.77 143.727 413.867 C 158.821 394.342 172.294 371.851 190.029 351.596 C 191.875 352.094 193.683 352.576 195.451 353.041 C 193.811 361.066 191.567 371.305 188.693 382.516 C 182.293 407.489 172.493 436.759 162.076 451.471 C 152.87 464.473 134.68 480.039 115.7 494 H 145.333 C 157.806 483.708 169.018 472.817 176.769 461.871 C 190.316 442.739 199.519 412.779 206.129 386.984 C 208.999 375.787 211.257 365.537 212.937 357.365 C 217.4 358.384 221.65 359.276 225.7 360.02 C 224.057 384.437 219.864 438.155 213.179 466.445 C 211.335 474.249 208.361 483.84 204.894 494 H 223.952 C 226.677 485.611 229.038 477.604 230.696 470.586 C 237.973 439.796 242.02 387.523 243.634 362.482 C 247.957 362.853 252.187 363.046 256.411 363.033 C 258.361 406.796 259.154 450.775 261.55 494 H 279.577 C 277.481 450.05 275.884 405.905 274.382 361.861 C 278.055 361.409 281.822 360.837 285.762 360.123 C 286.142 365.652 286.604 371.853 287.259 378.922 C 289.077 398.534 291.896 421.71 296.897 438.002 C 301.973 454.536 310.755 474.318 320.546 494 H 340.749 C 329.541 472.002 319.273 449.556 314.105 432.719 C 310.005 419.362 306.955 396.386 305.183 377.259 A 765.6 765.6 0 0 1 303.546 356.324 A 575.888 575.888 0 0 0 313.813 353.752 C 316.87 363.572 322.039 379.092 329.015 395.952 C 340.648 424.065 356.331 455.887 378.899 471.414 C 401.067 486.666 435.667 489.854 465.458 490.652 C 475.878 490.932 485.622 490.799 494.001 490.52 V 472.514 C 485.821 472.795 476.201 472.934 465.941 472.658 C 437.421 471.894 404.357 467.082 389.103 456.586 C 373.447 445.815 356.794 416.009 345.647 389.07 C 339.064 373.159 334.159 358.498 331.202 349.047 C 333.165 348.502 335.532 347.822 337.562 347.254 C 342.203 356.48 349.282 369.641 357.902 382.463 C 365.589 393.9 374.358 405.04 384.37 412.903 C 394.382 420.764 407.415 425.746 419.702 420.203 C 426.692 417.05 432.181 412.119 435.368 406.109 C 438.555 400.099 439.446 393.437 439.124 386.842 C 438.48 373.652 433.366 359.912 427.782 345.678 C 422.198 331.444 415.986 316.823 412.356 303.538 C 408.726 290.251 407.914 278.695 411.206 270.232 C 420.986 254.34 434.638 241.199 447.751 231.506 C 453.088 235.737 459.995 239.168 468.069 241.422 C 488.254 216.377 491.748 193.3 490.169 176.363 C 465.633 184.093 448.001 202.797 435.577 218.129 C 419.461 230.406 401.446 245.674 394.431 263.705 C 388.923 277.862 390.887 293.252 394.993 308.281 C 399.099 323.311 405.582 338.378 411.024 352.251 C 416.467 366.126 420.714 378.913 421.144 387.719 C 421.358 392.121 420.714 395.323 419.466 397.676 C 412.518 408.133 402.216 403.939 395.487 398.746 C 388.09 392.938 379.955 383.006 372.841 372.422 C 358.613 351.254 348.202 327.857 348.202 327.857 L 347.929 327.979 L 339.222 310.566 C 333.0 319.258 323.253 325 312 325 C 293.881 325 279 310.119 279 292 C 279 282.547 283.055 273.98 289.502 267.943 C 279.092 266.037 267.532 265 256 265 C 246.916 265 237.822 265.652 229.28 266.857 C 236.43 272.928 241 281.965 241 292 C 241 310.119 226.119 325 208 325 C 193.579 325 181.218 315.57 176.77 302.586 C 168.534 320.936 147.306 335.81 134.482 345.096 C 124.375 352.327 113.489 358.686 104.442 361.664 C 95.393 364.641 89.607 364.258 85.725 361.057 C 77.832 354.549 76.875 348.81 78.959 338.973 C 81.042 329.136 87.665 316.393 95.771 302.775 C 111.984 275.539 134.871 244.879 131.107 213.051 C 129.823 202.188 123.649 192.199 118.123 183.705 C 104.437 162.767 81.333 138.8 59.141 132.908 Z M 208 277 C 199.61 277 193 283.61 193 292 S 199.61 307 208 307 S 223 300.39 223 292 S 216.39 277 208 277 Z M 312 277 C 303.61 277 297 283.61 297 292 S 303.61 307 312 307 S 327 300.39 327 292 S 320.39 277 312 277 Z&quot;);fill:rgb(0, 0, 0);font-size:656px;height:auto;inline-size:auto;line-height:0px;outline-color:rgb(0, 0, 0);overflow-x:visible;overflow-y:visible;perspective-origin:0px 0px;stroke:rgb(0, 0, 0);stroke-width:0px;text-decoration:none solid rgb(0, 0, 0);text-decoration-color:rgb(0, 0, 0);transform-origin:0px 0px;vertical-align:baseline;width:auto;-webkit-text-emphasis-color:rgb(0, 0, 0);-webkit-text-fill-color:rgb(0, 0, 0);-webkit-text-stroke-color:rgb(0, 0, 0);"/></svg>